<svg xmlns="http://www.w3.org/2000/svg" viewBox="0 0 512 512" role="img" aria-labelledby="title">
  <title id="title">Dev Quest app icon</title>
  <rect width="512" height="512" rx="112" fill="#112a46"/>
  <rect x="72" y="96" width="368" height="288" rx="34" fill="#86dbff"/>
  <rect x="72" y="298" width="368" height="86" fill="#59b86c"/>
  <rect x="110" y="250" width="120" height="34" rx="8" fill="#23364f"/>
  <rect x="138" y="206" width="64" height="52" rx="12" fill="#f8c654"/>
  <rect x="154" y="178" width="32" height="30" rx="8" fill="#fff7e8"/>
  <rect x="298" y="178" width="74" height="108" rx="8" fill="#ffffff"/>
  <rect x="314" y="198" width="42" height="48" rx="5" fill="#2f6fed"/>
  <rect x="320" y="258" width="32" height="10" rx="3" fill="#23364f"/>
  <rect x="236" y="232" width="38" height="38" rx="8" fill="#8a4b2f"/>
  <rect x="244" y="214" width="22" height="18" rx="9" fill="#fff7e8"/>
  <path d="M418 116v280c0 12-10 22-22 22H116c-12 0-22-10-22-22" fill="none" stroke="#23364f" stroke-width="24" stroke-linecap="round"/>
</svg>
